<svg width="19" height="19" viewBox="0 0 19 19" fill="none" xmlns="http://www.w3.org/2000/svg">
<path d="M5.9375 17.8125H4.75V16.0312H2.375V17.8125H1.1875V16.0312C1.18781 15.7164 1.31303 15.4145 1.53566 15.1919C1.75829 14.9693 2.06015 14.8441 2.375 14.8438H4.75C5.06485 14.8441 5.36671 14.9693 5.58934 15.1919C5.81197 15.4145 5.93719 15.7164 5.9375 16.0312V17.8125Z" fill="#FF0D0D"/>
<path d="M17.8125 17.8125H16.625V16.0312H14.25V17.8125H13.0625V16.0312C13.0628 15.7164 13.188 15.4145 13.4107 15.1919C13.6333 14.9693 13.9352 14.8441 14.25 14.8438H16.625C16.9398 14.8441 17.2417 14.9693 17.4643 15.1919C17.687 15.4145 17.8122 15.7164 17.8125 16.0312V17.8125Z" fill="#FF0D0D"/>
<path d="M11.875 17.8125H10.6875V16.0312H8.3125V17.8125H7.125V16.0312C7.12531 15.7164 7.25053 15.4145 7.47316 15.1919C7.69579 14.9693 7.99765 14.8441 8.3125 14.8438H10.6875C11.0023 14.8441 11.3042 14.9693 11.5268 15.1919C11.7495 15.4145 11.8747 15.7164 11.875 16.0312V17.8125Z" fill="#FF0D0D"/>
<path d="M9.5 14.25C10.1558 14.25 10.6875 13.7183 10.6875 13.0625C10.6875 12.4067 10.1558 11.875 9.5 11.875C8.84416 11.875 8.3125 12.4067 8.3125 13.0625C8.3125 13.7183 8.84416 14.25 9.5 14.25Z" fill="#FF0D0D"/>
<path d="M3.5625 14.25C4.21834 14.25 4.75 13.7183 4.75 13.0625C4.75 12.4067 4.21834 11.875 3.5625 11.875C2.90666 11.875 2.375 12.4067 2.375 13.0625C2.375 13.7183 2.90666 14.25 3.5625 14.25Z" fill="#FF0D0D"/>
<path d="M15.4375 14.25C16.0933 14.25 16.625 13.7183 16.625 13.0625C16.625 12.4067 16.0933 11.875 15.4375 11.875C14.7817 11.875 14.25 12.4067 14.25 13.0625C14.25 13.7183 14.7817 14.25 15.4375 14.25Z" fill="#FF0D0D"/>
<path d="M12.4688 11.875C13.1246 11.875 13.6562 11.3433 13.6562 10.6875C13.6562 10.0317 13.1246 9.5 12.4688 9.5C11.8129 9.5 11.2812 10.0317 11.2812 10.6875C11.2812 11.3433 11.8129 11.875 12.4688 11.875Z" fill="#FF0D0D"/>
<path d="M6.53125 11.875C7.18709 11.875 7.71875 11.3433 7.71875 10.6875C7.71875 10.0317 7.18709 9.5 6.53125 9.5C5.87541 9.5 5.34375 10.0317 5.34375 10.6875C5.34375 11.3433 5.87541 11.875 6.53125 11.875Z" fill="#FF0D0D"/>
<path d="M15.4375 8.3125H3.5625C3.24765 8.31219 2.94579 8.18697 2.72316 7.96434C2.50053 7.74171 2.37531 7.43985 2.375 7.125V2.375C2.37531 2.06015 2.50053 1.75829 2.72316 1.53566C2.94579 1.31303 3.24765 1.18781 3.5625 1.1875H15.4375C15.7523 1.18781 16.0542 1.31303 16.2768 1.53566C16.4995 1.75829 16.6247 2.06015 16.625 2.375V7.125C16.6247 7.43985 16.4995 7.74171 16.2768 7.96434C16.0542 8.18697 15.7523 8.31219 15.4375 8.3125ZM3.5625 2.375V7.125H15.4375V2.375H3.5625Z" fill="#FF0D0D"/>
<rect x="2.2666" y="1" width="14.4667" height="6.86667" stroke="#FF0D0D" stroke-width="2"/>
</svg>
