<svg width="14" height="12" viewBox="0 0 14 12" fill="none" xmlns="http://www.w3.org/2000/svg">
<path d="M13.8627 0.352941H3.84314C3.76765 0.352941 3.70588 0.416471 3.70588 0.494118V1.48235C3.70588 1.56 3.76765 1.62353 3.84314 1.62353H13.8627C13.9382 1.62353 14 1.56 14 1.48235V0.494118C14 0.416471 13.9382 0.352941 13.8627 0.352941ZM13.8627 5.36471H3.84314C3.76765 5.36471 3.70588 5.42824 3.70588 5.50588V6.49412C3.70588 6.57176 3.76765 6.63529 3.84314 6.63529H13.8627C13.9382 6.63529 14 6.57176 14 6.49412V5.50588C14 5.42824 13.9382 5.36471 13.8627 5.36471ZM13.8627 10.3765H3.84314C3.76765 10.3765 3.70588 10.44 3.70588 10.5176V11.5059C3.70588 11.5835 3.76765 11.6471 3.84314 11.6471H13.8627C13.9382 11.6471 14 11.5835 14 11.5059V10.5176C14 10.44 13.9382 10.3765 13.8627 10.3765ZM0 0.988235C-1.88011e-09 1.11801 0.0248515 1.24652 0.0731354 1.36642C0.121419 1.48631 0.19219 1.59526 0.281407 1.68702C0.370624 1.77879 0.47654 1.85158 0.593108 1.90125C0.709676 1.95091 0.834612 1.97647 0.960784 1.97647C1.08696 1.97647 1.21189 1.95091 1.32846 1.90125C1.44503 1.85158 1.55094 1.77879 1.64016 1.68702C1.72938 1.59526 1.80015 1.48631 1.84843 1.36642C1.89672 1.24652 1.92157 1.11801 1.92157 0.988235C1.92157 0.858458 1.89672 0.729952 1.84843 0.610054C1.80015 0.490156 1.72938 0.381214 1.64016 0.289447C1.55094 0.197681 1.44503 0.124888 1.32846 0.0752248C1.21189 0.0255614 1.08696 0 0.960784 0C0.834612 0 0.709676 0.0255614 0.593108 0.0752248C0.47654 0.124888 0.370624 0.197681 0.281407 0.289447C0.19219 0.381214 0.121419 0.490156 0.0731354 0.610054C0.0248515 0.729952 -1.88011e-09 0.858458 0 0.988235ZM0 6C-1.88011e-09 6.12978 0.0248515 6.25828 0.0731354 6.37818C0.121419 6.49808 0.19219 6.60702 0.281407 6.69879C0.370624 6.79055 0.47654 6.86335 0.593108 6.91301C0.709676 6.96267 0.834612 6.98824 0.960784 6.98824C1.08696 6.98824 1.21189 6.96267 1.32846 6.91301C1.44503 6.86335 1.55094 6.79055 1.64016 6.69879C1.72938 6.60702 1.80015 6.49808 1.84843 6.37818C1.89672 6.25828 1.92157 6.12978 1.92157 6C1.92157 5.87022 1.89672 5.74172 1.84843 5.62182C1.80015 5.50192 1.72938 5.39298 1.64016 5.30121C1.55094 5.20945 1.44503 5.13665 1.32846 5.08699C1.21189 5.03733 1.08696 5.01177 0.960784 5.01177C0.834612 5.01177 0.709676 5.03733 0.593108 5.08699C0.47654 5.13665 0.370624 5.20945 0.281407 5.30121C0.19219 5.39298 0.121419 5.50192 0.0731354 5.62182C0.0248515 5.74172 -1.88011e-09 5.87022 0 6ZM0 11.0118C-1.88011e-09 11.1415 0.0248515 11.27 0.0731354 11.3899C0.121419 11.5098 0.19219 11.6188 0.281407 11.7106C0.370624 11.8023 0.47654 11.8751 0.593108 11.9248C0.709676 11.9744 0.834612 12 0.960784 12C1.08696 12 1.21189 11.9744 1.32846 11.9248C1.44503 11.8751 1.55094 11.8023 1.64016 11.7106C1.72938 11.6188 1.80015 11.5098 1.84843 11.3899C1.89672 11.27 1.92157 11.1415 1.92157 11.0118C1.92157 10.882 1.89672 10.7535 1.84843 10.6336C1.80015 10.5137 1.72938 10.4047 1.64016 10.313C1.55094 10.2212 1.44503 10.1484 1.32846 10.0988C1.21189 10.0491 1.08696 10.0235 0.960784 10.0235C0.834612 10.0235 0.709676 10.0491 0.593108 10.0988C0.47654 10.1484 0.370624 10.2212 0.281407 10.313C0.19219 10.4047 0.121419 10.5137 0.0731354 10.6336C0.0248515 10.7535 -1.88011e-09 10.882 0 11.0118Z" fill="black"/>
</svg>
