<svg width="32" height="32" viewBox="0 0 32 32" fill="none" xmlns="http://www.w3.org/2000/svg">
<path d="M16 0C7.16347 0 0 7.16347 0 16C0 24.8365 7.16347 32 16 32C24.8365 32 32 24.8365 32 16C32 7.16347 24.8365 0 16 0ZM16 3.47656C22.9165 3.47656 28.5215 9.08523 28.5215 16C28.5215 22.9148 22.9165 28.5215 16 28.5215C9.08347 28.5215 3.47851 22.9148 3.47851 16C3.47853 9.08523 9.08347 3.47656 16 3.47656ZM22.1309 8.40235L12.8574 17.6777L9.8496 14.6699L6.89843 17.6191L9.90624 20.627L12.8769 23.5977L15.8262 20.6465L25.1015 11.373L22.1309 8.40235Z" fill="#08AB0F"/>
</svg>
