<svg width="11" height="11" viewBox="0 0 11 11" fill="none" xmlns="http://www.w3.org/2000/svg">
<path d="M3.53571 1.5721V0.392829C3.53571 0.288644 3.5771 0.188727 3.65078 0.115057C3.72445 0.0413873 3.82438 0 3.92857 0H7.07143C7.17562 0 7.27555 0.0413873 7.34922 0.115057C7.4229 0.188727 7.46429 0.288644 7.46429 0.392829V1.5721H10.6071C10.7113 1.5721 10.8113 1.61349 10.8849 1.68716C10.9586 1.76083 11 1.86075 11 1.96493C11 2.06912 10.9586 2.16903 10.8849 2.2427C10.8113 2.31637 10.7113 2.35776 10.6071 2.35776H0.392857C0.288665 2.35776 0.18874 2.31637 0.115065 2.2427C0.0413902 2.16903 0 2.06912 0 1.96493C0 1.86075 0.0413902 1.76083 0.115065 1.68716C0.18874 1.61349 0.288665 1.5721 0.392857 1.5721H3.53571ZM4.32143 1.5721H6.67857V0.786444H4.32143V1.5721ZM1.57143 11C1.46724 11 1.36731 10.9586 1.29364 10.8849C1.21996 10.8113 1.17857 10.7114 1.17857 10.6072V2.35776H9.82143V10.6072C9.82143 10.7114 9.78004 10.8113 9.70636 10.8849C9.63269 10.9586 9.53276 11 9.42857 11H1.57143ZM4.32143 8.64303C4.42562 8.64303 4.52555 8.60164 4.59922 8.52797C4.6729 8.4543 4.71429 8.35438 4.71429 8.2502V4.32191C4.71429 4.21772 4.6729 4.1178 4.59922 4.04413C4.52555 3.97046 4.42562 3.92908 4.32143 3.92908C4.21724 3.92908 4.11731 3.97046 4.04364 4.04413C3.96996 4.1178 3.92857 4.21772 3.92857 4.32191V8.2502C3.92857 8.35438 3.96996 8.4543 4.04364 8.52797C4.11731 8.60164 4.21724 8.64303 4.32143 8.64303ZM6.67857 8.64303C6.78276 8.64303 6.88269 8.60164 6.95636 8.52797C7.03004 8.4543 7.07143 8.35438 7.07143 8.2502V4.32191C7.07143 4.21772 7.03004 4.1178 6.95636 4.04413C6.88269 3.97046 6.78276 3.92908 6.67857 3.92908C6.57438 3.92908 6.47445 3.97046 6.40078 4.04413C6.3271 4.1178 6.28571 4.21772 6.28571 4.32191V8.2502C6.28571 8.35438 6.3271 8.4543 6.40078 8.52797C6.47445 8.60164 6.57438 8.64303 6.67857 8.64303Z" fill="black"/>
</svg>
