<svg width="12" height="12" viewBox="0 0 12 12" fill="none" xmlns="http://www.w3.org/2000/svg">
<path d="M1.40699 7.73322L0.773661 10.4666C0.751814 10.5665 0.752563 10.67 0.775854 10.7696C0.799145 10.8692 0.844389 10.9623 0.908283 11.0422C0.972176 11.1221 1.0531 11.1866 1.14515 11.2312C1.2372 11.2758 1.33805 11.2993 1.44033 11.2999C1.48798 11.3047 1.536 11.3047 1.58366 11.2999L4.33366 10.6666L9.61366 5.40655L6.66699 2.46655L1.40699 7.73322Z" fill="black"/>
<path d="M11.2736 2.77324L9.3069 0.806575C9.1776 0.67793 9.00263 0.605713 8.82023 0.605713C8.63784 0.605713 8.46287 0.67793 8.33357 0.806575L7.24023 1.89991L10.1836 4.84324L11.2769 3.74991C11.3409 3.6856 11.3916 3.60931 11.426 3.5254C11.4605 3.44148 11.4781 3.3516 11.4778 3.26088C11.4775 3.17017 11.4593 3.08041 11.4242 2.99673C11.3892 2.91306 11.338 2.83711 11.2736 2.77324Z" fill="black"/>
</svg>
